<svg width="2830" height="803" viewBox="0 0 2830 803" fill="none" xmlns="http://www.w3.org/2000/svg">
<path d="M146.288 3.36231C88.3944 27.5927 24.7497 96.0464 4.64864 181.971C-20.8078 290.84 85.1283 336.878 93.8172 321.783C104.044 304.046 74.8347 298.047 68.8222 241.561C61.0515 168.604 94.9737 87.0826 137.666 51.3135C145.602 44.6679 145.224 53.9174 145.224 71.0262C145.224 101.621 143.533 376.27 143.533 433.589C143.533 511.15 140.329 535.642 134.575 559.843C128.745 584.369 119.372 600.941 126.474 607.324C134.409 614.464 168.29 597.48 187.905 570.108C211.425 537.28 219.658 497.855 221.137 455.041C222.922 403.429 222.846 321.532 222.922 274.818C222.993 231.975 223.644 106.521 222.171 31.1022C221.81 12.6036 170.5 -6.80421 146.285 3.3398L146.288 3.36231ZM2202.1 366.34C2200.23 406.661 2191.3 438.178 2180.23 460.409C2158.78 503.446 2114.27 516.81 2095.37 454.942C2085.08 421.218 2084.6 364.895 2092 317.835C2099.54 269.893 2120.58 233.686 2155.43 236.951C2189.8 240.179 2205.88 284.46 2202.1 366.338V366.34ZM1622.68 616.506C1622.22 683.503 1611.67 742.246 1589.06 759.307C1556.98 783.499 1513.87 765.352 1522.8 716.464C1530.7 673.202 1568.05 629.021 1622.78 575.038C1622.78 575.038 1622.89 587.349 1622.69 616.506H1622.68ZM1613.92 365.949C1611.96 402.674 1602.44 439.568 1592.05 460.414C1570.61 503.451 1525.78 516.905 1507.2 454.947C1494.5 412.615 1497.54 357.826 1503.83 323.304C1511.98 278.514 1531.75 236.961 1567.25 236.961C1601.77 236.961 1618.79 274.824 1613.92 365.952V365.949ZM1278.27 365.388C1276.17 404.283 1268.58 436.798 1256.4 460.414C1234.36 503.155 1190.77 516.71 1171.55 454.947C1157.69 410.412 1162.41 349.686 1168.17 316.882C1176.73 268.203 1198.15 233.69 1231.6 236.961C1265.95 240.317 1282.66 284.464 1278.27 365.39V365.388ZM2816.5 410.819C2808.1 410.819 2804.27 419.475 2801.1 434.045C2790.1 484.705 2778.54 496.143 2763.63 496.143C2746.98 496.143 2732.01 471.059 2728.17 420.844C2725.14 381.359 2725.63 308.666 2729.5 236.356C2730.29 221.499 2726.19 206.8 2686.33 192.323C2669.18 186.097 2644.26 176.928 2631.84 206.885C2596.77 291.519 2583.05 358.712 2579.82 386.008C2579.66 387.421 2577.93 387.709 2577.62 384.409C2575.56 362.546 2570.96 322.819 2570.39 239.351C2570.28 223.066 2566.83 209.204 2548.85 197.855C2537.19 190.491 2501.77 177.466 2489.01 192.961C2477.96 205.633 2465.17 239.736 2451.87 280.161C2441.06 313.017 2433.53 335.244 2433.53 335.244C2433.53 335.244 2433.68 246.591 2433.81 212.964C2433.86 200.278 2425.16 196.051 2422.54 195.284C2410.72 191.857 2387.45 186.13 2377.57 186.13C2365.38 186.13 2362.4 192.942 2362.4 202.868C2362.4 204.167 2360.48 319.587 2360.48 400.294C2360.48 403.799 2360.48 407.624 2360.51 411.687C2353.77 448.781 2331.91 499.135 2308.13 499.135C2284.33 499.135 2273.1 478.083 2273.1 381.868C2273.1 325.739 2274.78 301.332 2275.61 260.736C2276.09 237.353 2277.02 219.397 2276.97 215.322C2276.79 202.827 2255.18 196.528 2245.13 194.201C2235.02 191.854 2226.24 190.945 2219.39 191.335C2209.68 191.882 2202.82 198.247 2202.82 207.001C2202.82 211.695 2202.87 220.621 2202.87 220.621C2190.37 200.984 2170.27 187.317 2156.9 183.357C2120.88 172.66 2083.29 182.138 2054.94 221.806C2032.41 253.324 2018.82 289.022 2013.48 340.31C2009.57 377.806 2010.84 415.829 2017.79 447.985C2009.4 484.269 1993.81 499.135 1976.75 499.135C1951.98 499.135 1934.02 458.707 1936.1 388.79C1937.48 342.802 1946.68 310.529 1956.74 263.84C1961.03 243.937 1957.55 233.516 1948.81 223.529C1940.79 214.37 1923.71 209.691 1899.15 215.446C1881.66 219.55 1856.65 223.962 1833.77 227.352C1833.77 227.352 1835.15 221.844 1836.28 212.133C1842.23 161.207 1786.89 165.339 1769.23 181.605C1758.69 191.316 1751.51 202.769 1748.79 223.363C1744.47 256.043 1771.13 271.457 1771.13 271.457C1762.38 311.486 1740.94 363.779 1718.81 401.586C1706.95 421.841 1697.88 436.851 1686.18 452.807C1686.13 446.866 1686.1 440.925 1686.08 435.012C1685.81 350.853 1686.93 284.617 1687.43 260.744C1687.91 237.362 1688.85 219.881 1688.79 215.807C1688.66 206.667 1683.32 203.215 1672.22 198.845C1662.4 194.98 1650.8 192.305 1638.76 191.372C1623.56 190.186 1614.4 198.246 1614.64 207.776C1614.69 209.575 1614.69 220.624 1614.69 220.624C1602.19 200.987 1582.09 187.321 1568.72 183.36C1532.69 172.668 1495.11 182.146 1466.75 221.809C1444.23 253.328 1429.47 297.556 1425.29 339.923C1421.4 379.41 1422.12 412.966 1427.42 441.233C1421.7 469.539 1405.23 499.138 1386.61 499.138C1362.8 499.138 1349.26 478.086 1349.26 381.872C1349.26 325.742 1350.94 301.336 1351.77 260.744C1352.25 237.362 1353.18 219.401 1353.13 215.331C1352.95 202.835 1331.34 196.537 1321.29 194.204C1310.77 191.772 1301.68 190.877 1294.71 191.391C1285.5 192.076 1279.03 200.316 1279.03 206.462V220.624C1266.54 200.987 1246.43 187.321 1233.06 183.36C1197.04 172.668 1159.66 182.299 1131.1 221.809C1112.47 247.572 1097.4 276.135 1089.64 339.362C1087.39 357.633 1086.4 374.743 1086.53 390.736C1079.1 436.151 1046.3 488.494 1019.47 488.494C1003.77 488.494 988.813 458.043 988.813 393.144C988.813 306.696 994.164 183.612 995.069 171.75C995.069 171.75 1028.97 171.174 1035.54 171.097C1052.45 170.912 1067.76 171.311 1090.29 170.159C1101.59 169.583 1112.47 129.044 1100.81 124.027C1095.53 121.756 1058.18 119.767 1043.37 119.452C1030.92 119.17 996.259 116.606 996.259 116.606C996.259 116.606 999.368 34.9081 1000.09 26.2778C1000.71 19.0849 991.398 15.3814 986.061 13.1342C973.083 7.64567 961.471 5.0178 947.707 2.18067C928.691 -1.74167 920.064 2.09498 918.379 18.1421C915.841 42.4964 914.527 113.83 914.527 113.83C900.573 113.83 852.906 111.103 838.947 111.103C825.978 111.103 811.98 166.87 829.91 167.556C850.539 168.355 886.49 169.046 910.323 169.765C910.323 169.765 909.262 294.876 909.262 333.502C909.262 337.611 909.297 341.569 909.305 345.408C896.188 413.767 849.987 450.693 849.987 450.693C859.909 405.47 839.642 371.509 803.134 342.762C789.684 332.168 763.132 312.113 733.424 290.136C733.424 290.136 750.63 273.179 765.889 239.067C776.701 214.903 777.168 187.25 750.63 181.152C706.781 171.07 670.627 203.269 659.843 237.643C651.487 264.273 655.944 284.033 672.312 304.56C673.507 306.059 674.802 307.592 676.14 309.134C666.242 328.21 652.644 353.892 641.127 373.809C609.162 429.105 585.014 472.843 566.765 472.843C552.178 472.843 552.373 428.437 552.373 386.861C552.373 351.019 555.02 297.133 557.134 241.342C557.834 222.891 548.607 212.38 533.139 202.859C523.74 197.076 503.682 185.703 492.065 185.703C474.678 185.703 424.512 188.069 377.112 325.162C371.138 342.442 359.403 373.927 359.403 373.927L360.413 209.067C360.413 205.202 358.354 201.465 353.639 198.908C345.652 194.572 324.318 185.703 305.349 185.703C296.31 185.703 291.8 189.906 291.8 198.285L290.145 456.211C290.145 475.808 290.657 498.67 292.594 508.67C294.525 518.681 297.653 526.826 301.527 531.672C305.395 536.508 309.87 540.198 317.247 541.721C324.114 543.134 361.713 547.961 363.667 533.595C366.008 516.377 366.098 497.755 385.841 428.3C416.577 320.169 456.652 267.41 475.491 248.673C478.784 245.398 482.546 245.203 482.364 250.563C481.56 274.27 478.732 333.507 476.828 383.834C471.725 518.514 496.229 543.477 531.246 543.477C558.036 543.477 595.801 516.862 636.283 449.489C661.521 407.503 686.026 366.335 703.632 336.663C715.901 348.02 729.67 360.242 743.429 373.3C775.404 403.643 785.902 432.476 778.937 459.829C773.609 480.739 753.546 502.289 717.839 481.343C707.431 475.233 702.989 470.511 692.524 463.622C686.902 459.921 678.318 458.815 673.171 462.692C659.802 472.771 652.156 485.59 647.791 501.461C643.544 516.905 659.012 525.068 675.047 532.209C688.854 538.354 718.529 543.923 737.454 544.557C811.192 547.023 870.262 508.959 911.382 410.772C918.743 495.568 950.07 543.553 1004.5 543.553C1040.89 543.553 1077.37 496.524 1093.32 450.259C1097.9 469.118 1104.68 485.518 1113.44 499.386C1155.38 565.827 1236.74 551.526 1277.61 495.108C1290.24 477.675 1292.17 471.41 1292.17 471.41C1298.13 524.683 1341.03 543.296 1365.6 543.296C1393.11 543.296 1421.52 530.291 1441.43 485.472C1443.77 490.336 1446.31 494.981 1449.09 499.385C1491.03 565.825 1572.39 551.525 1613.26 495.106C1615.19 492.46 1616.86 490.059 1618.32 487.904L1619.52 522.897C1619.52 522.897 1596.21 544.281 1581.9 557.4C1518.91 615.181 1471.01 659.019 1467.49 710.069C1462.97 775.162 1515.77 799.355 1555.71 802.525C1598.13 805.891 1634.46 782.461 1656.79 749.671C1676.43 720.809 1689.28 658.691 1688.34 597.339C1687.96 572.771 1687.34 541.533 1686.86 508.049C1709 482.343 1733.94 449.854 1756.91 411.824C1781.93 370.379 1808.76 314.722 1822.49 271.407C1822.49 271.407 1845.8 271.607 1870.67 269.979C1878.63 269.46 1880.91 271.083 1879.44 276.915C1877.66 283.96 1848.02 398.295 1875.07 474.46C1893.59 526.6 1935.34 543.376 1960.1 543.376C1989.07 543.376 2016.79 521.497 2031.64 489.008C2033.43 492.63 2035.3 496.135 2037.35 499.37C2079.29 565.811 2160.36 551.425 2201.52 495.092C2210.8 482.382 2216.07 471.395 2216.07 471.395C2224.91 526.529 2267.79 543.561 2292.35 543.561C2317.94 543.561 2342.22 533.074 2361.92 486.466C2362.74 506.987 2364.04 523.768 2366.08 529.058C2367.33 532.293 2374.6 536.355 2379.89 538.316C2403.3 546.994 2427.17 542.891 2436 541.106C2442.12 539.868 2446.89 534.96 2447.54 522.287C2449.25 489.013 2448.2 433.107 2458.29 391.558C2475.22 321.829 2491.02 294.78 2498.52 281.39C2502.71 273.887 2507.44 272.649 2507.61 280.59C2507.97 296.656 2508.77 343.836 2515.33 407.225C2520.14 453.845 2526.58 481.401 2531.53 490.122C2545.64 515.061 2563.08 516.242 2577.28 516.242C2586.31 516.242 2605.19 513.747 2603.5 497.876C2602.68 490.14 2604.12 442.332 2620.82 373.635C2631.72 328.774 2649.9 288.239 2656.46 273.42C2658.88 267.955 2660 272.263 2659.96 273.103C2658.58 303.997 2655.48 405.05 2668.07 460.318C2685.13 535.189 2734.49 543.567 2751.7 543.567C2788.42 543.567 2818.45 515.637 2828.57 442.148C2831 424.462 2827.39 410.806 2816.58 410.806" fill="#262626"/>
</svg>
